<?xml version="1.0" encoding="UTF-8" standalone="no"?>
<svg
   xmlns:dc="http://purl.org/dc/elements/1.1/"
   xmlns:cc="http://creativecommons.org/ns#"
   xmlns:rdf="http://www.w3.org/1999/02/22-rdf-syntax-ns#"
   xmlns:svg="http://www.w3.org/2000/svg"
   xmlns="http://www.w3.org/2000/svg"
   width="256"
   height="256"
   viewBox="0 0 67.733332 67.733335"
   version="1.1"
   id="svg8">
  <defs
     id="defs2">
    <clipPath
       id="clipPath18"
       clipPathUnits="userSpaceOnUse">
      <path
         style="clip-rule:evenodd"
         id="path16"
         d="M 9.12e-6,0 H 612.00001 V 792 H 9.12e-6 Z" />
    </clipPath>
    <clipPath
       id="clipPath30"
       clipPathUnits="userSpaceOnUse">
      <path
         style="clip-rule:evenodd"
         id="path28"
         d="M 9.12e-6,0 H 612.00001 V 792 H 9.12e-6 Z" />
    </clipPath>
    <clipPath
       id="clipPath38"
       clipPathUnits="userSpaceOnUse">
      <path
         style="clip-rule:evenodd"
         id="path36"
         d="M 9.12e-6,0 H 612.00001 V 792 H 9.12e-6 Z" />
    </clipPath>
    <clipPath
       id="clipPath50"
       clipPathUnits="userSpaceOnUse">
      <path
         style="clip-rule:evenodd"
         id="path48"
         d="M 9.12e-6,0 H 612.00001 V 792 H 9.12e-6 Z" />
    </clipPath>
  </defs>
  <metadata
     id="metadata5">
    <rdf:RDF>
      <cc:Work
         rdf:about="">
        <dc:format>image/svg+xml</dc:format>
        <dc:type
           rdf:resource="http://purl.org/dc/dcmitype/StillImage" />
        <dc:title></dc:title>
      </cc:Work>
    </rdf:RDF>
  </metadata>
  <g
     id="layer3">
    <rect
       style="fill:#f6f6f6;fill-opacity:1;stroke-width:0.263988"
       id="rect911"
       width="67.73333"
       height="67.73333"
       x="1.7801921e-06"
       y="1.7801921e-06" />
  </g>
  <g
     id="layer1">
    <text
       xml:space="preserve"
       style="font-style:normal;font-variant:normal;font-weight:normal;font-stretch:normal;font-size:16.9333px;line-height:1.65;font-family:'Eras Bold ITC';-inkscape-font-specification:'Eras Bold ITC';fill:#000000;fill-opacity:1;stroke:none;stroke-width:0.264583"
       x="71.059525"
       y="63.5"
       id="text59"><tspan
         id="tspan57"
         x="71.059525"
         y="63.5"
         style="font-style:normal;font-variant:normal;font-weight:normal;font-stretch:normal;font-size:16.9333px;font-family:'Eras Bold ITC';-inkscape-font-specification:'Eras Bold ITC';stroke-width:0.264583" /></text>
    <text
       xml:space="preserve"
       style="font-style:normal;font-variant:normal;font-weight:normal;font-stretch:normal;font-size:10.5833px;line-height:1.25;font-family:'Eras Bold ITC';-inkscape-font-specification:'Eras Bold ITC';fill:#000000;fill-opacity:1;stroke:none;stroke-width:0.264583"
       x="89.958336"
       y="85.422623"
       id="text63"><tspan
         id="tspan61"
         x="89.958336"
         y="85.422623"
         style="font-style:normal;font-variant:normal;font-weight:normal;font-stretch:normal;font-family:'Eras Bold ITC';-inkscape-font-specification:'Eras Bold ITC';stroke-width:0.264583" /></text>
    <g
       aria-label="LCP
AJAX"
       transform="scale(0.9387992,1.0651905)"
       id="text67"
       style="font-size:20.905px;line-height:1.25;font-family:'Eras Bold ITC';-inkscape-font-specification:'Eras Bold ITC';stroke-width:0.522625">
      <path
         d="m 17.420211,25.705214 q 0.255188,-2.408975 0.367471,-3.929896 0.214358,-2.776445 0.316433,-5.51206 0.112283,-2.745823 0.112283,-4.491309 1.388222,0.02041 2.460012,0.02041 0.724734,0 2.082334,-0.02041 l -0.24498,3.695122 -0.306226,5.777456 -0.04083,1.418846 q 1.755693,0.03062 2.286484,0.03062 2.684578,0 4.062593,-0.07145 l -0.224565,3.082671 q -2.684578,-0.02041 -5.113968,-0.02041 -3.286821,0 -5.757041,0.02041 z"
         style="text-align:center;text-anchor:middle;fill:#007fff;fill-opacity:1;stroke-width:0.522625"
         id="path895" />
      <path
         d="m 41.836598,22.306109 q -0.12249,0.602244 -0.296018,1.684241 -0.173528,1.07179 -0.234773,1.663826 -2.184409,0.316433 -3.899272,0.316433 -1.653619,0 -3.082671,-0.408301 -1.418846,-0.418508 -2.613125,-1.3576 -1.184073,-0.949299 -1.694449,-2.225239 -0.510376,-1.27594 -0.510376,-2.858106 0,-1.847561 0.683904,-3.317444 0.694111,-1.48009 1.980259,-2.460012 1.296355,-0.990129 2.83769,-1.408638 1.541336,-0.428716 3.184747,-0.428716 1.510713,0 3.735952,0.387886 l 0.02041,0.857432 q 0.02041,0.561413 0.06124,1.23511 l 0.07145,1.163657 q -1.19428,-0.285811 -1.939429,-0.387886 -0.734941,-0.102075 -1.367808,-0.102075 -1.378015,0 -2.480427,0.551206 -1.102412,0.551206 -1.735278,1.602581 -0.632867,1.051374 -0.632867,2.327314 0,1.163658 0.530791,2.000674 0.530791,0.826809 1.429053,1.286148 0.908469,0.449131 2.235447,0.449131 0.724734,0 1.571958,-0.112283 0.857432,-0.12249 2.143579,-0.459339 z"
         style="text-align:center;text-anchor:middle;fill:#007fff;fill-opacity:1;stroke-width:0.522625"
         id="path897" />
      <path
         d="m 43.827065,25.705214 0.20415,-2.613126 0.265396,-5.103759 0.112283,-3.613463 q 0.01021,-0.581828 0.01021,-1.163657 0,-0.438923 -0.01021,-1.43926 1.347392,0.03062 2.163994,0.03062 0.785979,0 2.153786,-0.04083 1.367808,-0.05104 2.317107,-0.05104 1.367808,0 2.021089,0.173528 0.663489,0.173527 1.19428,0.551206 0.530791,0.36747 0.877847,0.867639 0.347056,0.500168 0.520583,1.143242 0.173528,0.632866 0.173528,1.296355 0,1.367808 -0.663489,2.500843 -0.663488,1.133034 -1.867976,1.694448 -1.204487,0.561413 -2.704992,0.561413 -0.551207,0 -1.27594,-0.12249 -0.08166,-0.469546 -0.306226,-1.39843 -0.224565,-0.928884 -0.367471,-1.378015 0.449131,0.09187 0.939092,0.09187 1.03096,0 1.531128,-0.489961 0.510376,-0.500168 0.510376,-1.214694 0,-0.347056 -0.112283,-0.612452 -0.112282,-0.275603 -0.357263,-0.44913 -0.24498,-0.173528 -0.540998,-0.224566 -0.296018,-0.05104 -0.673697,-0.05104 -0.36747,0 -0.765564,0.02041 l -0.857431,0.06124 q -0.132698,1.970051 -0.204151,4.379026 -0.132698,4.389233 -0.132698,5.26708 v 1.326978 l -2.031296,-0.02041 q -0.428716,0 -2.123164,0.02041 z"
         style="text-align:center;text-anchor:middle;fill:#007fff;fill-opacity:1;stroke-width:0.522625"
         id="path899" />
      <path
         d="m 5.9265438,51.836464 0.8472242,-1.469882 5.277288,-9.942125 0.561413,-1.112619 q 0.244981,-0.489961 0.683904,-1.408638 1.796524,0.02041 2.623333,0.02041 1.43926,0 2.664162,-0.02041 l 1.490298,4.256536 3.031634,8.186431 0.592036,1.490297 q -1.765901,-0.02041 -2.143579,-0.02041 -0.857432,0 -2.521258,0.02041 -0.449131,-1.68424 -1.296355,-3.960517 h -5.14459 q -0.888054,1.796523 -1.837353,3.960517 -1.898599,-0.02041 -2.3273148,-0.02041 -0.7757715,0 -2.5008424,0.02041 z m 7.9006202,-6.930906 h 3.174539 q -1.184072,-3.603254 -1.296355,-3.970725 -0.673696,1.500506 -1.143242,2.460012 z"
         style="text-align:center;text-anchor:middle;fill:#007fff;fill-opacity:1;stroke-width:0.522625"
         id="path901" />
      <path
         d="m 23.524308,51.520031 q -0.09187,-1.745486 -0.234773,-3.409311 1.15345,0.438923 1.857769,0.592036 0.714526,0.153113 1.326978,0.153113 0.683903,0 1.224902,-0.244981 0.408301,-0.193943 0.643074,-0.500168 0.316433,-0.428716 0.428716,-1.000337 0.193942,-1.03096 0.296018,-3.58284 0.102075,-2.562087 0.102075,-4.430063 V 37.9032 q 1.633203,0.02041 2.174202,0.02041 0.673696,0 2.306899,-0.02041 l -0.306226,4.511724 q -0.112282,2.000673 -0.16332,4.256535 -0.04083,1.735279 -0.173528,2.378352 -0.12249,0.581829 -0.347055,0.979922 -0.204151,0.377679 -0.510376,0.673697 -0.377679,0.357263 -0.90847,0.622658 -0.714526,0.367471 -1.52092,0.551206 -0.888054,0.204151 -1.898599,0.204151 -1.867976,0 -4.297366,-0.561414 z"
         style="text-align:center;text-anchor:middle;fill:#007fff;fill-opacity:1;stroke-width:0.522625"
         id="path903" />
      <path
         d="m 33.731828,51.836464 0.847224,-1.469882 5.277288,-9.942125 0.561414,-1.112619 q 0.24498,-0.489961 0.683904,-1.408638 1.796523,0.02041 2.623332,0.02041 1.439261,0 2.664163,-0.02041 l 1.490298,4.256536 3.031633,8.186431 0.592036,1.490297 q -1.765901,-0.02041 -2.143579,-0.02041 -0.857431,0 -2.521257,0.02041 -0.449131,-1.68424 -1.296355,-3.960517 h -5.14459 q -0.888054,1.796523 -1.837354,3.960517 -1.898598,-0.02041 -2.327314,-0.02041 -0.775772,0 -2.500843,0.02041 z m 7.900621,-6.930906 h 3.174538 q -1.184072,-3.603254 -1.296355,-3.970725 -0.673696,1.500506 -1.143242,2.460012 z"
         style="text-align:center;text-anchor:middle;fill:#007fff;fill-opacity:1;stroke-width:0.522625"
         id="path905" />
      <path
         d="m 50.604859,51.836464 q 1.19428,-1.510713 2.898936,-3.797197 1.714863,-2.286484 2.653955,-3.633877 l -1.204488,-2.031297 q -0.336848,-0.551206 -0.969714,-1.541335 l -1.020752,-1.582166 q -0.377678,-0.592036 -0.847224,-1.347392 1.31677,0.02041 2.694785,0.02041 1.092205,0 2.337522,-0.02041 0.449131,0.888054 1.051375,1.929221 0.612451,1.03096 0.969714,1.796524 0.408301,-0.704319 1.11262,-1.745486 0.704319,-1.051375 1.23511,-1.980259 1.081997,0.02041 2.357937,0.02041 0.826809,0 2.347729,-0.02041 -0.734941,1.051374 -2.184409,2.980596 -1.449468,1.929221 -2.745823,3.807404 1.653618,2.817276 4.491309,7.145264 -1.612788,-0.02041 -2.419182,-0.02041 -1.347393,0 -2.664163,0.02041 -0.398093,-0.816601 -1.122827,-2.061919 -0.714527,-1.255525 -1.245318,-2.306899 -0.398093,0.714526 -1.306562,2.010881 -0.908469,1.296355 -1.602581,2.357937 -1.490298,-0.02041 -2.357937,-0.02041 -0.959507,0 -2.460012,0.02041 z"
         style="text-align:center;text-anchor:middle;fill:#007fff;fill-opacity:1;stroke-width:0.522625"
         id="path907" />
    </g>
  </g>
</svg>
